<mxfile host="app.diagrams.net" modified="2021-11-04T14:42:23.926Z" agent="5.0 (Macintosh)" etag="Ek1oG2jUGARj3-F0nuQl" version="15.6.8" type="github">
  <diagram id="TtoM8TKqsSyaRm2l33-K" name="Page-1">
    <mxGraphModel dx="3572" dy="1756" grid="1" gridSize="10" guides="1" tooltips="1" connect="1" arrows="1" fold="1" page="0" pageScale="1" pageWidth="850" pageHeight="1100" math="0" shadow="0">
      <root>
        <mxCell id="0" />
        <mxCell id="1" parent="0" />
        <mxCell id="_qCFZrQWDJR1jyEBsIuS-36" value="&lt;div&gt;EN2&lt;/div&gt;" style="text;html=1;strokeColor=none;fillColor=none;align=center;verticalAlign=middle;whiteSpace=wrap;rounded=0;fontStyle=1" parent="1" vertex="1">
          <mxGeometry x="490" y="340" width="60" height="30" as="geometry" />
        </mxCell>
        <mxCell id="_qCFZrQWDJR1jyEBsIuS-19" value="" style="endArrow=none;html=1;rounded=0;strokeWidth=8;fillColor=#f5f5f5;strokeColor=#666666;" parent="1" edge="1">
          <mxGeometry width="50" height="50" relative="1" as="geometry">
            <mxPoint x="680" y="1230" as="sourcePoint" />
            <mxPoint x="680" y="-120" as="targetPoint" />
          </mxGeometry>
        </mxCell>
        <mxCell id="_qCFZrQWDJR1jyEBsIuS-1" value="&lt;div style=&quot;font-size: 13px&quot;&gt;ADDER&lt;/div&gt;&lt;div style=&quot;font-size: 13px&quot;&gt;SUBTRACTOR&lt;/div&gt;&lt;div style=&quot;font-size: 13px&quot;&gt;XOR&lt;/div&gt;&lt;div style=&quot;font-size: 13px&quot;&gt;AND&lt;/div&gt;&lt;div style=&quot;font-size: 13px&quot;&gt;MAX&lt;/div&gt;&lt;div style=&quot;font-size: 13px&quot;&gt;2&#39;s COMPLIMENT&lt;br style=&quot;font-size: 13px&quot;&gt;&lt;/div&gt;&lt;div style=&quot;font-size: 13px&quot;&gt;&lt;br style=&quot;font-size: 13px&quot;&gt;&lt;/div&gt;" style="whiteSpace=wrap;html=1;aspect=fixed;fontStyle=1;fontSize=13;" parent="1" vertex="1">
          <mxGeometry x="110" y="70" width="250" height="250" as="geometry" />
        </mxCell>
        <mxCell id="_qCFZrQWDJR1jyEBsIuS-14" style="edgeStyle=orthogonalEdgeStyle;rounded=0;orthogonalLoop=1;jettySize=auto;html=1;entryX=0;entryY=0.5;entryDx=0;entryDy=0;" parent="1" source="_qCFZrQWDJR1jyEBsIuS-2" target="_qCFZrQWDJR1jyEBsIuS-13" edge="1">
          <mxGeometry relative="1" as="geometry" />
        </mxCell>
        <mxCell id="_qCFZrQWDJR1jyEBsIuS-2" value="&lt;div&gt;AND[0]&lt;/div&gt;&lt;div&gt;AND[1]&lt;/div&gt;&lt;div&gt;AND[2]&lt;/div&gt;&lt;div&gt;AND[3]&lt;br&gt;&lt;/div&gt;" style="text;html=1;strokeColor=none;fillColor=none;align=center;verticalAlign=middle;whiteSpace=wrap;rounded=0;" parent="1" vertex="1">
          <mxGeometry x="300" y="90" width="60" height="30" as="geometry" />
        </mxCell>
        <mxCell id="_qCFZrQWDJR1jyEBsIuS-16" style="edgeStyle=orthogonalEdgeStyle;rounded=0;orthogonalLoop=1;jettySize=auto;html=1;entryX=0;entryY=0.5;entryDx=0;entryDy=0;" parent="1" source="_qCFZrQWDJR1jyEBsIuS-5" target="_qCFZrQWDJR1jyEBsIuS-15" edge="1">
          <mxGeometry relative="1" as="geometry" />
        </mxCell>
        <mxCell id="_qCFZrQWDJR1jyEBsIuS-5" value="&lt;div&gt;XOR[0]&lt;/div&gt;&lt;div&gt;XOR[1]&lt;/div&gt;&lt;div&gt;XOR[2]&lt;/div&gt;&lt;div&gt;XOR[3]&lt;br&gt;&lt;/div&gt;" style="text;html=1;strokeColor=none;fillColor=none;align=center;verticalAlign=middle;whiteSpace=wrap;rounded=0;" parent="1" vertex="1">
          <mxGeometry x="300" y="170" width="60" height="30" as="geometry" />
        </mxCell>
        <mxCell id="_qCFZrQWDJR1jyEBsIuS-18" style="edgeStyle=orthogonalEdgeStyle;rounded=0;orthogonalLoop=1;jettySize=auto;html=1;entryX=0;entryY=0.5;entryDx=0;entryDy=0;" parent="1" source="_qCFZrQWDJR1jyEBsIuS-6" target="_qCFZrQWDJR1jyEBsIuS-17" edge="1">
          <mxGeometry relative="1" as="geometry" />
        </mxCell>
        <mxCell id="_qCFZrQWDJR1jyEBsIuS-6" value="&lt;div&gt;S[0]&lt;/div&gt;&lt;div&gt;S[1]&lt;/div&gt;&lt;div&gt;S[2]&lt;/div&gt;&lt;div&gt;S[3]&lt;br&gt;&lt;/div&gt;" style="text;html=1;strokeColor=none;fillColor=none;align=center;verticalAlign=middle;whiteSpace=wrap;rounded=0;" parent="1" vertex="1">
          <mxGeometry x="300" y="260" width="60" height="30" as="geometry" />
        </mxCell>
        <mxCell id="_qCFZrQWDJR1jyEBsIuS-7" value="COUT" style="text;html=1;strokeColor=none;fillColor=none;align=center;verticalAlign=middle;whiteSpace=wrap;rounded=0;" parent="1" vertex="1">
          <mxGeometry x="223.5" y="290" width="60" height="30" as="geometry" />
        </mxCell>
        <mxCell id="_qCFZrQWDJR1jyEBsIuS-8" value="CIN" style="text;html=1;strokeColor=none;fillColor=none;align=center;verticalAlign=middle;whiteSpace=wrap;rounded=0;" parent="1" vertex="1">
          <mxGeometry x="110" y="230" width="55" height="30" as="geometry" />
        </mxCell>
        <mxCell id="_qCFZrQWDJR1jyEBsIuS-9" value="&lt;div&gt;A[0]&lt;/div&gt;&lt;div&gt;A[1]&lt;/div&gt;&lt;div&gt;A[2]&lt;/div&gt;&lt;div&gt;A[3]&lt;br&gt;&lt;/div&gt;" style="text;html=1;strokeColor=none;fillColor=none;align=center;verticalAlign=middle;whiteSpace=wrap;rounded=0;" parent="1" vertex="1">
          <mxGeometry x="110" y="90" width="50" height="30" as="geometry" />
        </mxCell>
        <mxCell id="_qCFZrQWDJR1jyEBsIuS-10" value="&lt;div&gt;B[0]&lt;/div&gt;&lt;div&gt;B[1]&lt;/div&gt;&lt;div&gt;B[2]&lt;/div&gt;&lt;div&gt;B[3]&lt;br&gt;&lt;/div&gt;" style="text;html=1;strokeColor=none;fillColor=none;align=center;verticalAlign=middle;whiteSpace=wrap;rounded=0;" parent="1" vertex="1">
          <mxGeometry x="110" y="160" width="50" height="30" as="geometry" />
        </mxCell>
        <mxCell id="_qCFZrQWDJR1jyEBsIuS-11" value="SUB" style="text;html=1;strokeColor=none;fillColor=none;align=center;verticalAlign=middle;whiteSpace=wrap;rounded=0;" parent="1" vertex="1">
          <mxGeometry x="110" y="210" width="55" height="30" as="geometry" />
        </mxCell>
        <mxCell id="_qCFZrQWDJR1jyEBsIuS-12" value="V" style="text;html=1;strokeColor=none;fillColor=none;align=center;verticalAlign=middle;whiteSpace=wrap;rounded=0;" parent="1" vertex="1">
          <mxGeometry x="178.5" y="290" width="60" height="30" as="geometry" />
        </mxCell>
        <mxCell id="_qCFZrQWDJR1jyEBsIuS-22" style="edgeStyle=orthogonalEdgeStyle;rounded=0;orthogonalLoop=1;jettySize=auto;html=1;strokeWidth=1;" parent="1" source="_qCFZrQWDJR1jyEBsIuS-13" edge="1">
          <mxGeometry relative="1" as="geometry">
            <mxPoint x="680" y="70" as="targetPoint" />
          </mxGeometry>
        </mxCell>
        <mxCell id="_qCFZrQWDJR1jyEBsIuS-13" value="&lt;div style=&quot;font-size: 13px;&quot;&gt;4-Bit Tristate&lt;/div&gt;&lt;div style=&quot;font-size: 13px;&quot;&gt;Buffer&lt;br style=&quot;font-size: 13px;&quot;&gt;&lt;/div&gt;" style="whiteSpace=wrap;html=1;aspect=fixed;fontStyle=1;fontSize=13;" parent="1" vertex="1">
          <mxGeometry x="460" y="30" width="80" height="80" as="geometry" />
        </mxCell>
        <mxCell id="_qCFZrQWDJR1jyEBsIuS-23" style="edgeStyle=orthogonalEdgeStyle;rounded=0;orthogonalLoop=1;jettySize=auto;html=1;strokeWidth=1;" parent="1" source="_qCFZrQWDJR1jyEBsIuS-15" edge="1">
          <mxGeometry relative="1" as="geometry">
            <mxPoint x="680" y="185" as="targetPoint" />
          </mxGeometry>
        </mxCell>
        <mxCell id="_qCFZrQWDJR1jyEBsIuS-15" value="&lt;div style=&quot;font-size: 13px;&quot;&gt;4-Bit Tristate&lt;/div&gt;&lt;div style=&quot;font-size: 13px;&quot;&gt;Buffer&lt;br style=&quot;font-size: 13px;&quot;&gt;&lt;/div&gt;" style="whiteSpace=wrap;html=1;aspect=fixed;fontStyle=1;fontSize=13;" parent="1" vertex="1">
          <mxGeometry x="460" y="145" width="80" height="80" as="geometry" />
        </mxCell>
        <mxCell id="_qCFZrQWDJR1jyEBsIuS-24" style="edgeStyle=orthogonalEdgeStyle;rounded=0;orthogonalLoop=1;jettySize=auto;html=1;strokeWidth=1;" parent="1" source="_qCFZrQWDJR1jyEBsIuS-17" edge="1">
          <mxGeometry relative="1" as="geometry">
            <mxPoint x="680" y="300" as="targetPoint" />
          </mxGeometry>
        </mxCell>
        <mxCell id="_qCFZrQWDJR1jyEBsIuS-17" value="&lt;div style=&quot;font-size: 13px;&quot;&gt;4-Bit Tristate&lt;/div&gt;&lt;div style=&quot;font-size: 13px;&quot;&gt;Buffer&lt;br style=&quot;font-size: 13px;&quot;&gt;&lt;/div&gt;" style="whiteSpace=wrap;html=1;aspect=fixed;fontStyle=1;fontSize=13;" parent="1" vertex="1">
          <mxGeometry x="460" y="260" width="80" height="80" as="geometry" />
        </mxCell>
        <mxCell id="_qCFZrQWDJR1jyEBsIuS-20" value="DATABUS" style="text;html=1;strokeColor=none;fillColor=none;align=center;verticalAlign=middle;whiteSpace=wrap;rounded=0;fontStyle=1;fontSize=20;" parent="1" vertex="1">
          <mxGeometry x="590" y="-110" width="60" height="30" as="geometry" />
        </mxCell>
        <mxCell id="_qCFZrQWDJR1jyEBsIuS-25" value="4-BIT OR" style="whiteSpace=wrap;html=1;aspect=fixed;fontStyle=1;fontSize=13;" parent="1" vertex="1">
          <mxGeometry x="148.5" y="530" width="170" height="170" as="geometry" />
        </mxCell>
        <mxCell id="_qCFZrQWDJR1jyEBsIuS-26" value="&lt;div&gt;A[0]&lt;/div&gt;&lt;div&gt;A[1]&lt;/div&gt;&lt;div&gt;A[2]&lt;/div&gt;&lt;div&gt;A[3]&lt;br&gt;&lt;/div&gt;" style="text;html=1;strokeColor=none;fillColor=none;align=center;verticalAlign=middle;whiteSpace=wrap;rounded=0;" parent="1" vertex="1">
          <mxGeometry x="147.5" y="565" width="60" height="30" as="geometry" />
        </mxCell>
        <mxCell id="_qCFZrQWDJR1jyEBsIuS-27" value="&lt;div&gt;B[0]&lt;/div&gt;&lt;div&gt;B[1]&lt;/div&gt;&lt;div&gt;B[2]&lt;/div&gt;&lt;div&gt;B[3]&lt;br&gt;&lt;/div&gt;" style="text;html=1;strokeColor=none;fillColor=none;align=center;verticalAlign=middle;whiteSpace=wrap;rounded=0;" parent="1" vertex="1">
          <mxGeometry x="147.5" y="635" width="60" height="30" as="geometry" />
        </mxCell>
        <mxCell id="_qCFZrQWDJR1jyEBsIuS-28" value="En" style="text;html=1;strokeColor=none;fillColor=none;align=center;verticalAlign=middle;whiteSpace=wrap;rounded=0;" parent="1" vertex="1">
          <mxGeometry x="470" y="314" width="60" height="30" as="geometry" />
        </mxCell>
        <mxCell id="_qCFZrQWDJR1jyEBsIuS-29" value="En" style="text;html=1;strokeColor=none;fillColor=none;align=center;verticalAlign=middle;whiteSpace=wrap;rounded=0;" parent="1" vertex="1">
          <mxGeometry x="470" y="200" width="60" height="30" as="geometry" />
        </mxCell>
        <mxCell id="_qCFZrQWDJR1jyEBsIuS-30" value="En" style="text;html=1;strokeColor=none;fillColor=none;align=center;verticalAlign=middle;whiteSpace=wrap;rounded=0;" parent="1" vertex="1">
          <mxGeometry x="470" y="85" width="60" height="30" as="geometry" />
        </mxCell>
        <mxCell id="_qCFZrQWDJR1jyEBsIuS-31" value="" style="endArrow=none;html=1;rounded=0;strokeWidth=1;exitX=0.5;exitY=0.867;exitDx=0;exitDy=0;exitPerimeter=0;" parent="1" source="_qCFZrQWDJR1jyEBsIuS-28" edge="1">
          <mxGeometry width="50" height="50" relative="1" as="geometry">
            <mxPoint x="400" y="370" as="sourcePoint" />
            <mxPoint x="500" y="360" as="targetPoint" />
          </mxGeometry>
        </mxCell>
        <mxCell id="_qCFZrQWDJR1jyEBsIuS-32" value="" style="endArrow=none;html=1;rounded=0;strokeWidth=1;exitX=0.5;exitY=0.867;exitDx=0;exitDy=0;exitPerimeter=0;" parent="1" edge="1">
          <mxGeometry width="50" height="50" relative="1" as="geometry">
            <mxPoint x="499.76" y="225.00000000000006" as="sourcePoint" />
            <mxPoint x="499.76" y="244.99" as="targetPoint" />
          </mxGeometry>
        </mxCell>
        <mxCell id="_qCFZrQWDJR1jyEBsIuS-33" value="" style="endArrow=none;html=1;rounded=0;strokeWidth=1;exitX=0.5;exitY=0.867;exitDx=0;exitDy=0;exitPerimeter=0;" parent="1" edge="1">
          <mxGeometry width="50" height="50" relative="1" as="geometry">
            <mxPoint x="499.76" y="110.00000000000006" as="sourcePoint" />
            <mxPoint x="499.76" y="129.99" as="targetPoint" />
          </mxGeometry>
        </mxCell>
        <mxCell id="_qCFZrQWDJR1jyEBsIuS-34" value="EN0" style="text;html=1;strokeColor=none;fillColor=none;align=center;verticalAlign=middle;whiteSpace=wrap;rounded=0;fontStyle=1" parent="1" vertex="1">
          <mxGeometry x="490" y="110" width="60" height="30" as="geometry" />
        </mxCell>
        <mxCell id="_qCFZrQWDJR1jyEBsIuS-35" value="EN1" style="text;html=1;strokeColor=none;fillColor=none;align=center;verticalAlign=middle;whiteSpace=wrap;rounded=0;fontStyle=1" parent="1" vertex="1">
          <mxGeometry x="490" y="225" width="60" height="30" as="geometry" />
        </mxCell>
        <mxCell id="XGVqMPs8SdAkGqt0Dx7o-16" style="edgeStyle=orthogonalEdgeStyle;rounded=0;orthogonalLoop=1;jettySize=auto;html=1;entryX=0;entryY=0.5;entryDx=0;entryDy=0;" parent="1" source="XGVqMPs8SdAkGqt0Dx7o-1" target="XGVqMPs8SdAkGqt0Dx7o-14" edge="1">
          <mxGeometry relative="1" as="geometry" />
        </mxCell>
        <mxCell id="XGVqMPs8SdAkGqt0Dx7o-1" value="Barrel Shifter" style="whiteSpace=wrap;html=1;aspect=fixed;fontStyle=1;fontSize=13;" parent="1" vertex="1">
          <mxGeometry x="148.5" y="780" width="170" height="170" as="geometry" />
        </mxCell>
        <mxCell id="XGVqMPs8SdAkGqt0Dx7o-2" value="&lt;div&gt;I[0]&lt;/div&gt;&lt;div&gt;I[1]&lt;/div&gt;&lt;div&gt;I[2]&lt;/div&gt;&lt;div&gt;I[3]&lt;br&gt;&lt;/div&gt;" style="text;html=1;strokeColor=none;fillColor=none;align=center;verticalAlign=middle;whiteSpace=wrap;rounded=0;" parent="1" vertex="1">
          <mxGeometry x="138.5" y="850" width="60" height="30" as="geometry" />
        </mxCell>
        <mxCell id="XGVqMPs8SdAkGqt0Dx7o-12" style="edgeStyle=orthogonalEdgeStyle;rounded=0;orthogonalLoop=1;jettySize=auto;html=1;entryX=0;entryY=0.5;entryDx=0;entryDy=0;exitX=0.833;exitY=0.667;exitDx=0;exitDy=0;exitPerimeter=0;" parent="1" source="XGVqMPs8SdAkGqt0Dx7o-3" target="XGVqMPs8SdAkGqt0Dx7o-10" edge="1">
          <mxGeometry relative="1" as="geometry">
            <mxPoint x="328.5" y="610" as="sourcePoint" />
          </mxGeometry>
        </mxCell>
        <mxCell id="XGVqMPs8SdAkGqt0Dx7o-3" value="&lt;div&gt;O[0]&lt;/div&gt;&lt;div&gt;O[1]&lt;/div&gt;&lt;div&gt;O[2]&lt;/div&gt;&lt;div&gt;O[3]&lt;br&gt;&lt;/div&gt;" style="text;html=1;strokeColor=none;fillColor=none;align=center;verticalAlign=middle;whiteSpace=wrap;rounded=0;" parent="1" vertex="1">
          <mxGeometry x="268.5" y="600" width="60" height="30" as="geometry" />
        </mxCell>
        <mxCell id="XGVqMPs8SdAkGqt0Dx7o-4" value="&lt;div&gt;CS[0]&lt;/div&gt;&lt;div&gt;CS[1]&lt;/div&gt;&lt;div&gt;CS[2]&lt;/div&gt;&lt;div&gt;CS[3]&lt;br&gt;&lt;/div&gt;" style="text;html=1;strokeColor=none;fillColor=none;align=center;verticalAlign=middle;whiteSpace=wrap;rounded=0;" parent="1" vertex="1">
          <mxGeometry x="268.5" y="840" width="60" height="30" as="geometry" />
        </mxCell>
        <mxCell id="XGVqMPs8SdAkGqt0Dx7o-9" value="EN3" style="text;html=1;strokeColor=none;fillColor=none;align=center;verticalAlign=middle;whiteSpace=wrap;rounded=0;fontStyle=1" parent="1" vertex="1">
          <mxGeometry x="488.5" y="660" width="60" height="30" as="geometry" />
        </mxCell>
        <mxCell id="XGVqMPs8SdAkGqt0Dx7o-71" style="edgeStyle=orthogonalEdgeStyle;rounded=0;orthogonalLoop=1;jettySize=auto;html=1;fontSize=20;" parent="1" source="XGVqMPs8SdAkGqt0Dx7o-10" edge="1">
          <mxGeometry relative="1" as="geometry">
            <mxPoint x="680" y="620" as="targetPoint" />
          </mxGeometry>
        </mxCell>
        <mxCell id="XGVqMPs8SdAkGqt0Dx7o-10" value="&lt;div style=&quot;font-size: 13px;&quot;&gt;4-Bit Tristate&lt;/div&gt;&lt;div style=&quot;font-size: 13px;&quot;&gt;Buffer&lt;br style=&quot;font-size: 13px;&quot;&gt;&lt;/div&gt;" style="whiteSpace=wrap;html=1;aspect=fixed;fontStyle=1;fontSize=13;" parent="1" vertex="1">
          <mxGeometry x="458.5" y="580" width="80" height="80" as="geometry" />
        </mxCell>
        <mxCell id="XGVqMPs8SdAkGqt0Dx7o-11" value="" style="endArrow=none;html=1;rounded=0;strokeWidth=1;exitX=0.5;exitY=0.867;exitDx=0;exitDy=0;exitPerimeter=0;" parent="1" edge="1">
          <mxGeometry width="50" height="50" relative="1" as="geometry">
            <mxPoint x="498.5" y="660.01" as="sourcePoint" />
            <mxPoint x="498.5" y="680" as="targetPoint" />
          </mxGeometry>
        </mxCell>
        <mxCell id="XGVqMPs8SdAkGqt0Dx7o-13" value="EN4" style="text;html=1;strokeColor=none;fillColor=none;align=center;verticalAlign=middle;whiteSpace=wrap;rounded=0;fontStyle=1" parent="1" vertex="1">
          <mxGeometry x="485" y="905.5" width="60" height="30" as="geometry" />
        </mxCell>
        <mxCell id="XGVqMPs8SdAkGqt0Dx7o-72" style="edgeStyle=orthogonalEdgeStyle;rounded=0;orthogonalLoop=1;jettySize=auto;html=1;fontSize=20;" parent="1" source="XGVqMPs8SdAkGqt0Dx7o-14" edge="1">
          <mxGeometry relative="1" as="geometry">
            <mxPoint x="680" y="865.0000000000002" as="targetPoint" />
          </mxGeometry>
        </mxCell>
        <mxCell id="XGVqMPs8SdAkGqt0Dx7o-14" value="&lt;div style=&quot;font-size: 13px;&quot;&gt;4-Bit Tristate&lt;/div&gt;&lt;div style=&quot;font-size: 13px;&quot;&gt;Buffer&lt;br style=&quot;font-size: 13px;&quot;&gt;&lt;/div&gt;" style="whiteSpace=wrap;html=1;aspect=fixed;fontStyle=1;fontSize=13;" parent="1" vertex="1">
          <mxGeometry x="455" y="824.5" width="80" height="80" as="geometry" />
        </mxCell>
        <mxCell id="XGVqMPs8SdAkGqt0Dx7o-15" value="" style="endArrow=none;html=1;rounded=0;strokeWidth=1;exitX=0.5;exitY=0.867;exitDx=0;exitDy=0;exitPerimeter=0;" parent="1" edge="1">
          <mxGeometry width="50" height="50" relative="1" as="geometry">
            <mxPoint x="494.9999999999998" y="904.51" as="sourcePoint" />
            <mxPoint x="494.9999999999998" y="924.5" as="targetPoint" />
          </mxGeometry>
        </mxCell>
        <mxCell id="XGVqMPs8SdAkGqt0Dx7o-70" style="edgeStyle=orthogonalEdgeStyle;rounded=0;orthogonalLoop=1;jettySize=auto;html=1;fontSize=20;" parent="1" source="XGVqMPs8SdAkGqt0Dx7o-24" target="_qCFZrQWDJR1jyEBsIuS-9" edge="1">
          <mxGeometry relative="1" as="geometry">
            <Array as="points">
              <mxPoint x="10" y="33" />
              <mxPoint x="10" y="105" />
            </Array>
          </mxGeometry>
        </mxCell>
        <mxCell id="XGVqMPs8SdAkGqt0Dx7o-24" value="&lt;div style=&quot;font-size: 13px&quot;&gt;3to1 Mux&lt;/div&gt;&lt;div style=&quot;font-size: 13px&quot;&gt;4-Bits&lt;br style=&quot;font-size: 13px&quot;&gt;&lt;/div&gt;" style="whiteSpace=wrap;html=1;aspect=fixed;fontStyle=1;fontSize=13;" parent="1" vertex="1">
          <mxGeometry x="-276" y="-87.5" width="240" height="240" as="geometry" />
        </mxCell>
        <mxCell id="XGVqMPs8SdAkGqt0Dx7o-25" value="&lt;div&gt;A[0]&lt;/div&gt;&lt;div&gt;A[1]&lt;/div&gt;&lt;div&gt;A[2]&lt;/div&gt;&lt;div&gt;A[3]&lt;br&gt;&lt;/div&gt;" style="text;html=1;strokeColor=none;fillColor=none;align=center;verticalAlign=middle;whiteSpace=wrap;rounded=0;" parent="1" vertex="1">
          <mxGeometry x="-276" y="-57.5" width="60" height="30" as="geometry" />
        </mxCell>
        <mxCell id="XGVqMPs8SdAkGqt0Dx7o-26" value="&lt;div&gt;B[0]&lt;/div&gt;&lt;div&gt;B[1]&lt;/div&gt;&lt;div&gt;B[2]&lt;/div&gt;&lt;div&gt;B[3]&lt;br&gt;&lt;/div&gt;" style="text;html=1;strokeColor=none;fillColor=none;align=center;verticalAlign=middle;whiteSpace=wrap;rounded=0;" parent="1" vertex="1">
          <mxGeometry x="-277" y="12.5" width="60" height="30" as="geometry" />
        </mxCell>
        <mxCell id="XGVqMPs8SdAkGqt0Dx7o-27" value="S(0)" style="text;html=1;strokeColor=none;fillColor=none;align=center;verticalAlign=middle;whiteSpace=wrap;rounded=0;" parent="1" vertex="1">
          <mxGeometry x="-200.25" y="-87.5" width="60" height="30" as="geometry" />
        </mxCell>
        <mxCell id="XGVqMPs8SdAkGqt0Dx7o-39" value="&lt;div style=&quot;font-size: 13px;&quot;&gt;2to1 Mux&lt;/div&gt;&lt;div style=&quot;font-size: 13px;&quot;&gt;4-Bits&lt;br style=&quot;font-size: 13px;&quot;&gt;&lt;/div&gt;" style="whiteSpace=wrap;html=1;aspect=fixed;fontStyle=1;fontSize=13;" parent="1" vertex="1">
          <mxGeometry x="-58" y="792.5" width="145" height="145" as="geometry" />
        </mxCell>
        <mxCell id="XGVqMPs8SdAkGqt0Dx7o-40" value="&lt;div&gt;A[0]&lt;/div&gt;&lt;div&gt;A[1]&lt;/div&gt;&lt;div&gt;A[2]&lt;/div&gt;&lt;div&gt;A[3]&lt;br&gt;&lt;/div&gt;" style="text;html=1;strokeColor=none;fillColor=none;align=center;verticalAlign=middle;whiteSpace=wrap;rounded=0;" parent="1" vertex="1">
          <mxGeometry x="-58" y="817.5" width="60" height="30" as="geometry" />
        </mxCell>
        <mxCell id="XGVqMPs8SdAkGqt0Dx7o-41" value="&lt;div&gt;B[0]&lt;/div&gt;&lt;div&gt;B[1]&lt;/div&gt;&lt;div&gt;B[2]&lt;/div&gt;&lt;div&gt;B[3]&lt;br&gt;&lt;/div&gt;" style="text;html=1;strokeColor=none;fillColor=none;align=center;verticalAlign=middle;whiteSpace=wrap;rounded=0;" parent="1" vertex="1">
          <mxGeometry x="-58" y="887.5" width="60" height="30" as="geometry" />
        </mxCell>
        <mxCell id="XGVqMPs8SdAkGqt0Dx7o-42" value="S" style="text;html=1;strokeColor=none;fillColor=none;align=center;verticalAlign=middle;whiteSpace=wrap;rounded=0;" parent="1" vertex="1">
          <mxGeometry x="-15.5" y="792.5" width="60" height="30" as="geometry" />
        </mxCell>
        <mxCell id="XGVqMPs8SdAkGqt0Dx7o-51" value="&lt;div&gt;C[0]&lt;/div&gt;&lt;div&gt;C[1]&lt;/div&gt;&lt;div&gt;C[2]&lt;/div&gt;&lt;div&gt;C[3]&lt;br&gt;&lt;/div&gt;" style="text;html=1;strokeColor=none;fillColor=none;align=center;verticalAlign=middle;whiteSpace=wrap;rounded=0;" parent="1" vertex="1">
          <mxGeometry x="-276" y="77.5" width="54" height="30" as="geometry" />
        </mxCell>
        <mxCell id="XGVqMPs8SdAkGqt0Dx7o-52" value="&lt;div&gt;O[0]&lt;/div&gt;&lt;div&gt;O[1]&lt;/div&gt;&lt;div&gt;O[2]&lt;/div&gt;&lt;div&gt;O[3]&lt;br&gt;&lt;/div&gt;" style="text;html=1;strokeColor=none;fillColor=none;align=center;verticalAlign=middle;whiteSpace=wrap;rounded=0;" parent="1" vertex="1">
          <mxGeometry x="-86" y="17.5" width="60" height="30" as="geometry" />
        </mxCell>
        <mxCell id="XGVqMPs8SdAkGqt0Dx7o-53" value="S(1)" style="text;html=1;strokeColor=none;fillColor=none;align=center;verticalAlign=middle;whiteSpace=wrap;rounded=0;" parent="1" vertex="1">
          <mxGeometry x="-171.75" y="-87.5" width="60" height="30" as="geometry" />
        </mxCell>
        <mxCell id="YykE-uixl1K2JJqu2O9A-1" style="edgeStyle=orthogonalEdgeStyle;rounded=0;orthogonalLoop=1;jettySize=auto;html=1;" parent="1" source="XGVqMPs8SdAkGqt0Dx7o-39" target="XGVqMPs8SdAkGqt0Dx7o-1" edge="1">
          <mxGeometry relative="1" as="geometry" />
        </mxCell>
        <mxCell id="XGVqMPs8SdAkGqt0Dx7o-64" value="&lt;div&gt;O[0]&lt;/div&gt;&lt;div&gt;O[1]&lt;/div&gt;&lt;div&gt;O[2]&lt;/div&gt;&lt;div&gt;O[3]&lt;br&gt;&lt;/div&gt;" style="text;html=1;strokeColor=none;fillColor=none;align=center;verticalAlign=middle;whiteSpace=wrap;rounded=0;" parent="1" vertex="1">
          <mxGeometry x="42" y="850" width="60" height="30" as="geometry" />
        </mxCell>
        <mxCell id="YykE-uixl1K2JJqu2O9A-4" value="" style="endArrow=classic;html=1;rounded=0;" parent="1" target="_qCFZrQWDJR1jyEBsIuS-11" edge="1">
          <mxGeometry width="50" height="50" relative="1" as="geometry">
            <mxPoint x="60" y="360" as="sourcePoint" />
            <mxPoint x="300" y="290" as="targetPoint" />
            <Array as="points">
              <mxPoint x="60" y="225" />
            </Array>
          </mxGeometry>
        </mxCell>
        <mxCell id="YykE-uixl1K2JJqu2O9A-5" value="" style="endArrow=classic;html=1;rounded=0;entryX=0;entryY=0.5;entryDx=0;entryDy=0;" parent="1" target="_qCFZrQWDJR1jyEBsIuS-8" edge="1">
          <mxGeometry width="50" height="50" relative="1" as="geometry">
            <mxPoint x="80" y="400" as="sourcePoint" />
            <mxPoint x="120" y="235" as="targetPoint" />
            <Array as="points">
              <mxPoint x="80" y="245" />
            </Array>
          </mxGeometry>
        </mxCell>
        <mxCell id="YykE-uixl1K2JJqu2O9A-6" value="" style="endArrow=classic;html=1;rounded=0;exitX=0.5;exitY=1;exitDx=0;exitDy=0;" parent="1" source="_qCFZrQWDJR1jyEBsIuS-12" edge="1">
          <mxGeometry width="50" height="50" relative="1" as="geometry">
            <mxPoint x="110" y="340" as="sourcePoint" />
            <mxPoint x="209" y="370" as="targetPoint" />
          </mxGeometry>
        </mxCell>
        <mxCell id="YykE-uixl1K2JJqu2O9A-7" value="" style="endArrow=classic;html=1;rounded=0;exitX=0.5;exitY=1;exitDx=0;exitDy=0;" parent="1" edge="1">
          <mxGeometry width="50" height="50" relative="1" as="geometry">
            <mxPoint x="253" y="320" as="sourcePoint" />
            <mxPoint x="253.5" y="370" as="targetPoint" />
          </mxGeometry>
        </mxCell>
        <mxCell id="YykE-uixl1K2JJqu2O9A-74" style="edgeStyle=orthogonalEdgeStyle;rounded=0;orthogonalLoop=1;jettySize=auto;html=1;entryX=0;entryY=0.5;entryDx=0;entryDy=0;fontSize=12;" parent="1" source="YykE-uixl1K2JJqu2O9A-8" target="XGVqMPs8SdAkGqt0Dx7o-25" edge="1">
          <mxGeometry relative="1" as="geometry">
            <Array as="points">
              <mxPoint x="-480" y="478" />
              <mxPoint x="-480" y="-42" />
            </Array>
          </mxGeometry>
        </mxCell>
        <mxCell id="YykE-uixl1K2JJqu2O9A-75" style="edgeStyle=orthogonalEdgeStyle;rounded=0;orthogonalLoop=1;jettySize=auto;html=1;entryX=0;entryY=0.5;entryDx=0;entryDy=0;fontSize=12;" parent="1" source="YykE-uixl1K2JJqu2O9A-8" target="_qCFZrQWDJR1jyEBsIuS-26" edge="1">
          <mxGeometry relative="1" as="geometry">
            <Array as="points">
              <mxPoint x="-480" y="478" />
              <mxPoint x="-480" y="580" />
            </Array>
          </mxGeometry>
        </mxCell>
        <mxCell id="YykE-uixl1K2JJqu2O9A-92" style="edgeStyle=orthogonalEdgeStyle;rounded=0;orthogonalLoop=1;jettySize=auto;html=1;entryX=0;entryY=0.5;entryDx=0;entryDy=0;fontSize=12;startArrow=none;" parent="1" source="YykE-uixl1K2JJqu2O9A-96" target="XGVqMPs8SdAkGqt0Dx7o-40" edge="1">
          <mxGeometry relative="1" as="geometry">
            <Array as="points">
              <mxPoint x="-200" y="477" />
              <mxPoint x="-200" y="833" />
            </Array>
          </mxGeometry>
        </mxCell>
        <mxCell id="YykE-uixl1K2JJqu2O9A-118" style="edgeStyle=orthogonalEdgeStyle;rounded=0;orthogonalLoop=1;jettySize=auto;html=1;entryX=0;entryY=0.25;entryDx=0;entryDy=0;fontSize=14;" parent="1" edge="1">
          <mxGeometry relative="1" as="geometry">
            <mxPoint x="-563" y="476.9999999999998" as="sourcePoint" />
            <mxPoint x="163" y="1068.75" as="targetPoint" />
            <Array as="points">
              <mxPoint x="-200" y="477" />
              <mxPoint x="-200" y="1069" />
            </Array>
          </mxGeometry>
        </mxCell>
        <mxCell id="YykE-uixl1K2JJqu2O9A-142" style="edgeStyle=orthogonalEdgeStyle;rounded=0;orthogonalLoop=1;jettySize=auto;html=1;entryX=0;entryY=0.5;entryDx=0;entryDy=0;fontSize=14;" parent="1" source="YykE-uixl1K2JJqu2O9A-8" target="YykE-uixl1K2JJqu2O9A-130" edge="1">
          <mxGeometry relative="1" as="geometry">
            <Array as="points">
              <mxPoint x="-480" y="477" />
              <mxPoint x="-480" y="263" />
            </Array>
          </mxGeometry>
        </mxCell>
        <mxCell id="YykE-uixl1K2JJqu2O9A-8" value="REG A" style="rounded=0;whiteSpace=wrap;html=1;rotation=-90;fontSize=13;fontStyle=1" parent="1" vertex="1">
          <mxGeometry x="-761" y="412" width="260" height="130" as="geometry" />
        </mxCell>
        <mxCell id="YykE-uixl1K2JJqu2O9A-89" style="edgeStyle=orthogonalEdgeStyle;rounded=0;orthogonalLoop=1;jettySize=auto;html=1;entryX=0;entryY=0.5;entryDx=0;entryDy=0;fontSize=12;" parent="1" source="YykE-uixl1K2JJqu2O9A-10" target="_qCFZrQWDJR1jyEBsIuS-27" edge="1">
          <mxGeometry relative="1" as="geometry">
            <Array as="points">
              <mxPoint x="-380" y="814" />
              <mxPoint x="-380" y="650" />
            </Array>
          </mxGeometry>
        </mxCell>
        <mxCell id="YykE-uixl1K2JJqu2O9A-91" style="edgeStyle=orthogonalEdgeStyle;rounded=0;orthogonalLoop=1;jettySize=auto;html=1;entryX=0;entryY=0.5;entryDx=0;entryDy=0;fontSize=12;" parent="1" source="YykE-uixl1K2JJqu2O9A-10" target="XGVqMPs8SdAkGqt0Dx7o-26" edge="1">
          <mxGeometry relative="1" as="geometry">
            <Array as="points">
              <mxPoint x="-380" y="814" />
              <mxPoint x="-380" y="28" />
            </Array>
          </mxGeometry>
        </mxCell>
        <mxCell id="YykE-uixl1K2JJqu2O9A-95" style="edgeStyle=orthogonalEdgeStyle;rounded=0;orthogonalLoop=1;jettySize=auto;html=1;entryX=0;entryY=0.5;entryDx=0;entryDy=0;fontSize=12;" parent="1" source="YykE-uixl1K2JJqu2O9A-10" target="XGVqMPs8SdAkGqt0Dx7o-41" edge="1">
          <mxGeometry relative="1" as="geometry">
            <Array as="points">
              <mxPoint x="-380" y="814" />
              <mxPoint x="-380" y="903" />
            </Array>
          </mxGeometry>
        </mxCell>
        <mxCell id="YykE-uixl1K2JJqu2O9A-119" style="edgeStyle=orthogonalEdgeStyle;rounded=0;orthogonalLoop=1;jettySize=auto;html=1;entryX=0;entryY=0.5;entryDx=0;entryDy=0;fontSize=14;" parent="1" source="YykE-uixl1K2JJqu2O9A-10" target="YykE-uixl1K2JJqu2O9A-113" edge="1">
          <mxGeometry relative="1" as="geometry">
            <Array as="points">
              <mxPoint x="-380" y="814" />
              <mxPoint x="-380" y="1143" />
            </Array>
          </mxGeometry>
        </mxCell>
        <mxCell id="YykE-uixl1K2JJqu2O9A-141" style="edgeStyle=orthogonalEdgeStyle;rounded=0;orthogonalLoop=1;jettySize=auto;html=1;entryX=0;entryY=0.5;entryDx=0;entryDy=0;fontSize=14;" parent="1" source="YykE-uixl1K2JJqu2O9A-10" target="YykE-uixl1K2JJqu2O9A-131" edge="1">
          <mxGeometry relative="1" as="geometry">
            <Array as="points">
              <mxPoint x="-380" y="814" />
              <mxPoint x="-380" y="333" />
            </Array>
          </mxGeometry>
        </mxCell>
        <mxCell id="YykE-uixl1K2JJqu2O9A-10" value="REG B" style="rounded=0;whiteSpace=wrap;html=1;rotation=-90;fontStyle=1;fontSize=13;" parent="1" vertex="1">
          <mxGeometry x="-761" y="748.75" width="260" height="130" as="geometry" />
        </mxCell>
        <mxCell id="YykE-uixl1K2JJqu2O9A-27" value="SUB" style="text;html=1;strokeColor=none;fillColor=none;align=center;verticalAlign=middle;whiteSpace=wrap;rounded=0;fontSize=12;fontStyle=1" parent="1" vertex="1">
          <mxGeometry x="29.5" y="354" width="60" height="30" as="geometry" />
        </mxCell>
        <mxCell id="YykE-uixl1K2JJqu2O9A-30" value="CIN" style="text;html=1;strokeColor=none;fillColor=none;align=center;verticalAlign=middle;whiteSpace=wrap;rounded=0;fontSize=12;fontStyle=1" parent="1" vertex="1">
          <mxGeometry x="50" y="394.5" width="60" height="30" as="geometry" />
        </mxCell>
        <mxCell id="YykE-uixl1K2JJqu2O9A-32" value="" style="endArrow=classic;html=1;rounded=0;fontSize=12;entryX=0;entryY=0;entryDx=0;entryDy=0;" parent="1" target="XGVqMPs8SdAkGqt0Dx7o-53" edge="1">
          <mxGeometry width="50" height="50" relative="1" as="geometry">
            <mxPoint x="-172" y="-120" as="sourcePoint" />
            <mxPoint x="-50" as="targetPoint" />
          </mxGeometry>
        </mxCell>
        <mxCell id="YykE-uixl1K2JJqu2O9A-33" value="" style="endArrow=classic;html=1;rounded=0;fontSize=12;entryX=0;entryY=0;entryDx=0;entryDy=0;" parent="1" edge="1">
          <mxGeometry width="50" height="50" relative="1" as="geometry">
            <mxPoint x="-141.95" y="-120" as="sourcePoint" />
            <mxPoint x="-141.7" y="-87.5" as="targetPoint" />
          </mxGeometry>
        </mxCell>
        <mxCell id="YykE-uixl1K2JJqu2O9A-36" value="S0" style="text;html=1;strokeColor=none;fillColor=none;align=center;verticalAlign=middle;whiteSpace=wrap;rounded=0;fontSize=14;fontStyle=1" parent="1" vertex="1">
          <mxGeometry x="-202.25" y="-145" width="60" height="30" as="geometry" />
        </mxCell>
        <mxCell id="YykE-uixl1K2JJqu2O9A-37" value="S1" style="text;html=1;strokeColor=none;fillColor=none;align=center;verticalAlign=middle;whiteSpace=wrap;rounded=0;fontSize=14;fontStyle=1" parent="1" vertex="1">
          <mxGeometry x="-173.75" y="-145" width="60" height="30" as="geometry" />
        </mxCell>
        <mxCell id="YykE-uixl1K2JJqu2O9A-41" value="" style="endArrow=classic;html=1;rounded=0;fontSize=12;entryX=0;entryY=0;entryDx=0;entryDy=0;" parent="1" edge="1">
          <mxGeometry width="50" height="50" relative="1" as="geometry">
            <mxPoint x="14.25" y="760" as="sourcePoint" />
            <mxPoint x="14.5" y="792.5" as="targetPoint" />
          </mxGeometry>
        </mxCell>
        <mxCell id="YykE-uixl1K2JJqu2O9A-42" value="S4" style="text;html=1;strokeColor=none;fillColor=none;align=center;verticalAlign=middle;whiteSpace=wrap;rounded=0;fontSize=14;fontStyle=1" parent="1" vertex="1">
          <mxGeometry x="-16" y="735" width="60" height="30" as="geometry" />
        </mxCell>
        <mxCell id="YykE-uixl1K2JJqu2O9A-45" value="Control Logic" style="whiteSpace=wrap;html=1;aspect=fixed;fontStyle=1;fontSize=13;" parent="1" vertex="1">
          <mxGeometry x="-1046" y="-80" width="345" height="345" as="geometry" />
        </mxCell>
        <mxCell id="YykE-uixl1K2JJqu2O9A-47" value="&lt;div&gt;EN0&lt;/div&gt;&lt;div&gt;EN1&lt;/div&gt;&lt;div&gt;EN2&lt;/div&gt;&lt;div&gt;EN3&lt;/div&gt;&lt;div&gt;EN4&lt;/div&gt;&lt;div&gt;EN5&lt;br&gt;&lt;/div&gt;&lt;div&gt;S0&lt;/div&gt;&lt;div&gt;S1&lt;/div&gt;&lt;div&gt;S2&lt;/div&gt;&lt;div&gt;S3&lt;/div&gt;&lt;div&gt;S4&lt;br&gt;&lt;/div&gt;&lt;div&gt;SUB&lt;/div&gt;&lt;div&gt;CIN&lt;br&gt;&lt;/div&gt;" style="text;html=1;strokeColor=none;fillColor=none;align=center;verticalAlign=middle;whiteSpace=wrap;rounded=0;" parent="1" vertex="1">
          <mxGeometry x="-761" y="87.5" width="60" height="30" as="geometry" />
        </mxCell>
        <mxCell id="YykE-uixl1K2JJqu2O9A-48" value="&lt;div&gt;S[0]&lt;/div&gt;&lt;div&gt;S[1]&lt;/div&gt;&lt;div&gt;S[2]&lt;/div&gt;&lt;div&gt;S[3]&lt;br&gt;&lt;/div&gt;" style="text;html=1;strokeColor=none;fillColor=none;align=center;verticalAlign=middle;whiteSpace=wrap;rounded=0;" parent="1" vertex="1">
          <mxGeometry x="-1045" y="87.5" width="60" height="30" as="geometry" />
        </mxCell>
        <mxCell id="YykE-uixl1K2JJqu2O9A-49" value="" style="endArrow=classic;html=1;rounded=0;fontSize=14;entryX=-0.006;entryY=0.474;entryDx=0;entryDy=0;entryPerimeter=0;" parent="1" edge="1">
          <mxGeometry width="50" height="50" relative="1" as="geometry">
            <mxPoint x="-1145" y="83.5" as="sourcePoint" />
            <mxPoint x="-1046.07" y="83.52999999999997" as="targetPoint" />
          </mxGeometry>
        </mxCell>
        <mxCell id="YykE-uixl1K2JJqu2O9A-50" value="" style="endArrow=classic;html=1;rounded=0;fontSize=14;entryX=-0.006;entryY=0.474;entryDx=0;entryDy=0;entryPerimeter=0;" parent="1" edge="1">
          <mxGeometry width="50" height="50" relative="1" as="geometry">
            <mxPoint x="-1144.93" y="97" as="sourcePoint" />
            <mxPoint x="-1046" y="97.02999999999997" as="targetPoint" />
          </mxGeometry>
        </mxCell>
        <mxCell id="YykE-uixl1K2JJqu2O9A-51" value="" style="endArrow=classic;html=1;rounded=0;fontSize=14;entryX=-0.006;entryY=0.474;entryDx=0;entryDy=0;entryPerimeter=0;" parent="1" edge="1">
          <mxGeometry width="50" height="50" relative="1" as="geometry">
            <mxPoint x="-1144.93" y="112.5" as="sourcePoint" />
            <mxPoint x="-1046" y="112.52999999999997" as="targetPoint" />
          </mxGeometry>
        </mxCell>
        <mxCell id="YykE-uixl1K2JJqu2O9A-52" value="" style="endArrow=classic;html=1;rounded=0;fontSize=14;entryX=-0.006;entryY=0.474;entryDx=0;entryDy=0;entryPerimeter=0;" parent="1" edge="1">
          <mxGeometry width="50" height="50" relative="1" as="geometry">
            <mxPoint x="-1144.93" y="127.5" as="sourcePoint" />
            <mxPoint x="-1046" y="127.52999999999997" as="targetPoint" />
          </mxGeometry>
        </mxCell>
        <mxCell id="YykE-uixl1K2JJqu2O9A-53" value="" style="endArrow=classic;html=1;rounded=0;fontSize=14;entryX=-0.006;entryY=0.474;entryDx=0;entryDy=0;entryPerimeter=0;" parent="1" edge="1">
          <mxGeometry width="50" height="50" relative="1" as="geometry">
            <mxPoint x="-701" y="31.5" as="sourcePoint" />
            <mxPoint x="-602.0699999999999" y="31.529999999999973" as="targetPoint" />
          </mxGeometry>
        </mxCell>
        <mxCell id="YykE-uixl1K2JJqu2O9A-54" value="" style="endArrow=classic;html=1;rounded=0;fontSize=14;entryX=-0.006;entryY=0.474;entryDx=0;entryDy=0;entryPerimeter=0;" parent="1" edge="1">
          <mxGeometry width="50" height="50" relative="1" as="geometry">
            <mxPoint x="-700.9300000000001" y="45" as="sourcePoint" />
            <mxPoint x="-602" y="45.02999999999997" as="targetPoint" />
          </mxGeometry>
        </mxCell>
        <mxCell id="YykE-uixl1K2JJqu2O9A-55" value="" style="endArrow=classic;html=1;rounded=0;fontSize=14;entryX=-0.006;entryY=0.474;entryDx=0;entryDy=0;entryPerimeter=0;" parent="1" edge="1">
          <mxGeometry width="50" height="50" relative="1" as="geometry">
            <mxPoint x="-700.9300000000001" y="60.5" as="sourcePoint" />
            <mxPoint x="-602" y="60.52999999999997" as="targetPoint" />
          </mxGeometry>
        </mxCell>
        <mxCell id="YykE-uixl1K2JJqu2O9A-56" value="" style="endArrow=classic;html=1;rounded=0;fontSize=14;entryX=-0.006;entryY=0.474;entryDx=0;entryDy=0;entryPerimeter=0;" parent="1" edge="1">
          <mxGeometry width="50" height="50" relative="1" as="geometry">
            <mxPoint x="-700.9300000000001" y="75.5" as="sourcePoint" />
            <mxPoint x="-602" y="75.52999999999997" as="targetPoint" />
          </mxGeometry>
        </mxCell>
        <mxCell id="YykE-uixl1K2JJqu2O9A-57" value="" style="endArrow=classic;html=1;rounded=0;fontSize=14;entryX=-0.006;entryY=0.474;entryDx=0;entryDy=0;entryPerimeter=0;" parent="1" edge="1">
          <mxGeometry width="50" height="50" relative="1" as="geometry">
            <mxPoint x="-701" y="89.5" as="sourcePoint" />
            <mxPoint x="-602.0699999999999" y="89.52999999999997" as="targetPoint" />
          </mxGeometry>
        </mxCell>
        <mxCell id="YykE-uixl1K2JJqu2O9A-58" value="" style="endArrow=classic;html=1;rounded=0;fontSize=14;entryX=-0.006;entryY=0.474;entryDx=0;entryDy=0;entryPerimeter=0;" parent="1" edge="1">
          <mxGeometry width="50" height="50" relative="1" as="geometry">
            <mxPoint x="-700.9300000000001" y="103" as="sourcePoint" />
            <mxPoint x="-602" y="103.02999999999997" as="targetPoint" />
          </mxGeometry>
        </mxCell>
        <mxCell id="YykE-uixl1K2JJqu2O9A-59" value="" style="endArrow=classic;html=1;rounded=0;fontSize=14;entryX=-0.006;entryY=0.474;entryDx=0;entryDy=0;entryPerimeter=0;" parent="1" edge="1">
          <mxGeometry width="50" height="50" relative="1" as="geometry">
            <mxPoint x="-700.9300000000001" y="118.5" as="sourcePoint" />
            <mxPoint x="-602" y="118.52999999999997" as="targetPoint" />
          </mxGeometry>
        </mxCell>
        <mxCell id="YykE-uixl1K2JJqu2O9A-60" value="" style="endArrow=classic;html=1;rounded=0;fontSize=14;entryX=-0.006;entryY=0.474;entryDx=0;entryDy=0;entryPerimeter=0;" parent="1" edge="1">
          <mxGeometry width="50" height="50" relative="1" as="geometry">
            <mxPoint x="-700.9300000000001" y="133.5" as="sourcePoint" />
            <mxPoint x="-602" y="133.52999999999997" as="targetPoint" />
          </mxGeometry>
        </mxCell>
        <mxCell id="YykE-uixl1K2JJqu2O9A-61" value="" style="endArrow=classic;html=1;rounded=0;fontSize=14;entryX=-0.006;entryY=0.474;entryDx=0;entryDy=0;entryPerimeter=0;" parent="1" edge="1">
          <mxGeometry width="50" height="50" relative="1" as="geometry">
            <mxPoint x="-701" y="145.66999999999996" as="sourcePoint" />
            <mxPoint x="-602.0699999999999" y="145.69999999999993" as="targetPoint" />
          </mxGeometry>
        </mxCell>
        <mxCell id="YykE-uixl1K2JJqu2O9A-62" value="" style="endArrow=classic;html=1;rounded=0;fontSize=14;entryX=-0.006;entryY=0.474;entryDx=0;entryDy=0;entryPerimeter=0;" parent="1" edge="1">
          <mxGeometry width="50" height="50" relative="1" as="geometry">
            <mxPoint x="-700.9300000000001" y="159.16999999999996" as="sourcePoint" />
            <mxPoint x="-602" y="159.19999999999993" as="targetPoint" />
          </mxGeometry>
        </mxCell>
        <mxCell id="YykE-uixl1K2JJqu2O9A-63" value="" style="endArrow=classic;html=1;rounded=0;fontSize=14;entryX=-0.006;entryY=0.474;entryDx=0;entryDy=0;entryPerimeter=0;" parent="1" edge="1">
          <mxGeometry width="50" height="50" relative="1" as="geometry">
            <mxPoint x="-700.9300000000001" y="174.66999999999996" as="sourcePoint" />
            <mxPoint x="-602" y="174.69999999999993" as="targetPoint" />
          </mxGeometry>
        </mxCell>
        <mxCell id="YykE-uixl1K2JJqu2O9A-65" value="&lt;div&gt;S[0]&lt;/div&gt;&lt;div&gt;S[1]&lt;/div&gt;&lt;div&gt;S[2]&lt;/div&gt;&lt;div&gt;S[3]&lt;br&gt;&lt;/div&gt;" style="text;html=1;strokeColor=none;fillColor=none;align=center;verticalAlign=middle;whiteSpace=wrap;rounded=0;" parent="1" vertex="1">
          <mxGeometry x="-1190" y="89.5" width="60" height="30" as="geometry" />
        </mxCell>
        <mxCell id="YykE-uixl1K2JJqu2O9A-69" value="&lt;div&gt;EN0&lt;/div&gt;&lt;div&gt;EN1&lt;/div&gt;&lt;div&gt;EN2&lt;/div&gt;&lt;div&gt;EN3&lt;/div&gt;&lt;div&gt;EN4&lt;/div&gt;&lt;div&gt;EN5&lt;br&gt;&lt;/div&gt;&lt;div&gt;S0&lt;/div&gt;&lt;div&gt;S1&lt;/div&gt;&lt;div&gt;S2&lt;/div&gt;&lt;div&gt;S3&lt;/div&gt;&lt;div&gt;S4&lt;br&gt;&lt;/div&gt;&lt;div&gt;SUB&lt;/div&gt;&lt;div&gt;CIN&lt;br&gt;&lt;/div&gt;" style="text;html=1;strokeColor=none;fillColor=none;align=center;verticalAlign=middle;whiteSpace=wrap;rounded=0;fontStyle=1" parent="1" vertex="1">
          <mxGeometry x="-617" y="88" width="60" height="30" as="geometry" />
        </mxCell>
        <mxCell id="YykE-uixl1K2JJqu2O9A-93" value="" style="endArrow=classic;html=1;rounded=0;fontSize=12;entryX=0;entryY=0.5;entryDx=0;entryDy=0;" parent="1" target="XGVqMPs8SdAkGqt0Dx7o-51" edge="1">
          <mxGeometry width="50" height="50" relative="1" as="geometry">
            <mxPoint x="-350" y="93" as="sourcePoint" />
            <mxPoint x="-200" y="400" as="targetPoint" />
          </mxGeometry>
        </mxCell>
        <mxCell id="YykE-uixl1K2JJqu2O9A-94" value="0000" style="text;html=1;strokeColor=none;fillColor=none;align=center;verticalAlign=middle;whiteSpace=wrap;rounded=0;fontSize=12;" parent="1" vertex="1">
          <mxGeometry x="-350" y="70" width="60" height="30" as="geometry" />
        </mxCell>
        <mxCell id="YykE-uixl1K2JJqu2O9A-96" value="" style="ellipse;whiteSpace=wrap;html=1;aspect=fixed;fontSize=12;fillColor=#000000;" parent="1" vertex="1">
          <mxGeometry x="-485" y="472" width="10" height="10" as="geometry" />
        </mxCell>
        <mxCell id="YykE-uixl1K2JJqu2O9A-97" value="" style="edgeStyle=orthogonalEdgeStyle;rounded=0;orthogonalLoop=1;jettySize=auto;html=1;entryX=0;entryY=0.5;entryDx=0;entryDy=0;fontSize=12;endArrow=none;" parent="1" source="YykE-uixl1K2JJqu2O9A-8" target="YykE-uixl1K2JJqu2O9A-96" edge="1">
          <mxGeometry relative="1" as="geometry">
            <mxPoint x="-566" y="477" as="sourcePoint" />
            <mxPoint x="-58" y="832.5" as="targetPoint" />
            <Array as="points" />
          </mxGeometry>
        </mxCell>
        <mxCell id="YykE-uixl1K2JJqu2O9A-98" value="" style="ellipse;whiteSpace=wrap;html=1;aspect=fixed;fontSize=12;fillColor=#000000;" parent="1" vertex="1">
          <mxGeometry x="-385" y="645" width="10" height="10" as="geometry" />
        </mxCell>
        <mxCell id="YykE-uixl1K2JJqu2O9A-101" value="" style="ellipse;whiteSpace=wrap;html=1;aspect=fixed;fontSize=12;fillColor=#000000;" parent="1" vertex="1">
          <mxGeometry x="-385" y="808.5" width="10" height="10" as="geometry" />
        </mxCell>
        <mxCell id="YykE-uixl1K2JJqu2O9A-102" value="" style="ellipse;whiteSpace=wrap;html=1;aspect=fixed;fontSize=12;fillColor=#000000;" parent="1" vertex="1">
          <mxGeometry x="-385" y="330" width="10" height="10" as="geometry" />
        </mxCell>
        <mxCell id="YykE-uixl1K2JJqu2O9A-104" value="" style="ellipse;whiteSpace=wrap;html=1;aspect=fixed;fontSize=12;fillColor=#000000;" parent="1" vertex="1">
          <mxGeometry x="-485" y="260" width="10" height="10" as="geometry" />
        </mxCell>
        <mxCell id="YykE-uixl1K2JJqu2O9A-105" value="&lt;div style=&quot;font-size: 40px;&quot;&gt;DESIGNED BY:&lt;/div&gt;&lt;div style=&quot;font-size: 40px;&quot;&gt;Nicholas Jacks&lt;br style=&quot;font-size: 40px;&quot;&gt;&lt;/div&gt;" style="text;html=1;strokeColor=none;fillColor=none;align=center;verticalAlign=middle;whiteSpace=wrap;rounded=0;fontSize=40;fontStyle=1" parent="1" vertex="1">
          <mxGeometry x="-1190" y="565" width="355" height="150" as="geometry" />
        </mxCell>
        <mxCell id="YykE-uixl1K2JJqu2O9A-109" value="COUT" style="text;html=1;strokeColor=none;fillColor=none;align=center;verticalAlign=middle;whiteSpace=wrap;rounded=0;fontStyle=1" parent="1" vertex="1">
          <mxGeometry x="223.5" y="364.5" width="60" height="30" as="geometry" />
        </mxCell>
        <mxCell id="YykE-uixl1K2JJqu2O9A-110" value="V" style="text;html=1;strokeColor=none;fillColor=none;align=center;verticalAlign=middle;whiteSpace=wrap;rounded=0;fontStyle=1" parent="1" vertex="1">
          <mxGeometry x="178.5" y="364.5" width="60" height="30" as="geometry" />
        </mxCell>
        <mxCell id="YykE-uixl1K2JJqu2O9A-111" value="&lt;div style=&quot;font-size: 13px;&quot;&gt;2to1 Mux&lt;/div&gt;&lt;div style=&quot;font-size: 13px;&quot;&gt;4-Bits&lt;br style=&quot;font-size: 13px;&quot;&gt;&lt;/div&gt;" style="whiteSpace=wrap;html=1;aspect=fixed;fontStyle=1;fontSize=13;" parent="1" vertex="1">
          <mxGeometry x="160" y="1032.5" width="145" height="145" as="geometry" />
        </mxCell>
        <mxCell id="YykE-uixl1K2JJqu2O9A-112" value="&lt;div&gt;A[0]&lt;/div&gt;&lt;div&gt;A[1]&lt;/div&gt;&lt;div&gt;A[2]&lt;/div&gt;&lt;div&gt;A[3]&lt;br&gt;&lt;/div&gt;" style="text;html=1;strokeColor=none;fillColor=none;align=center;verticalAlign=middle;whiteSpace=wrap;rounded=0;" parent="1" vertex="1">
          <mxGeometry x="160" y="1057.5" width="60" height="30" as="geometry" />
        </mxCell>
        <mxCell id="YykE-uixl1K2JJqu2O9A-113" value="&lt;div&gt;B[0]&lt;/div&gt;&lt;div&gt;B[1]&lt;/div&gt;&lt;div&gt;B[2]&lt;/div&gt;&lt;div&gt;B[3]&lt;br&gt;&lt;/div&gt;" style="text;html=1;strokeColor=none;fillColor=none;align=center;verticalAlign=middle;whiteSpace=wrap;rounded=0;" parent="1" vertex="1">
          <mxGeometry x="160" y="1127.5" width="60" height="30" as="geometry" />
        </mxCell>
        <mxCell id="YykE-uixl1K2JJqu2O9A-114" value="S" style="text;html=1;strokeColor=none;fillColor=none;align=center;verticalAlign=middle;whiteSpace=wrap;rounded=0;" parent="1" vertex="1">
          <mxGeometry x="202.5" y="1032.5" width="60" height="30" as="geometry" />
        </mxCell>
        <mxCell id="YykE-uixl1K2JJqu2O9A-126" style="edgeStyle=orthogonalEdgeStyle;rounded=0;orthogonalLoop=1;jettySize=auto;html=1;entryX=0;entryY=0.5;entryDx=0;entryDy=0;fontSize=14;" parent="1" source="YykE-uixl1K2JJqu2O9A-115" target="YykE-uixl1K2JJqu2O9A-123" edge="1">
          <mxGeometry relative="1" as="geometry" />
        </mxCell>
        <mxCell id="YykE-uixl1K2JJqu2O9A-115" value="&lt;div&gt;O[0]&lt;/div&gt;&lt;div&gt;O[1]&lt;/div&gt;&lt;div&gt;O[2]&lt;/div&gt;&lt;div&gt;O[3]&lt;br&gt;&lt;/div&gt;" style="text;html=1;strokeColor=none;fillColor=none;align=center;verticalAlign=middle;whiteSpace=wrap;rounded=0;" parent="1" vertex="1">
          <mxGeometry x="256" y="1090" width="50" height="30" as="geometry" />
        </mxCell>
        <mxCell id="YykE-uixl1K2JJqu2O9A-116" value="" style="endArrow=classic;html=1;rounded=0;fontSize=12;entryX=0;entryY=0;entryDx=0;entryDy=0;" parent="1" edge="1">
          <mxGeometry width="50" height="50" relative="1" as="geometry">
            <mxPoint x="232.25" y="1000" as="sourcePoint" />
            <mxPoint x="232.5" y="1032.5" as="targetPoint" />
          </mxGeometry>
        </mxCell>
        <mxCell id="YykE-uixl1K2JJqu2O9A-117" value="V" style="text;html=1;strokeColor=none;fillColor=none;align=center;verticalAlign=middle;whiteSpace=wrap;rounded=0;fontStyle=1" parent="1" vertex="1">
          <mxGeometry x="202.5" y="976" width="60" height="30" as="geometry" />
        </mxCell>
        <mxCell id="YykE-uixl1K2JJqu2O9A-120" value="En" style="text;html=1;strokeColor=none;fillColor=none;align=center;verticalAlign=middle;whiteSpace=wrap;rounded=0;" parent="1" vertex="1">
          <mxGeometry x="468.5" y="635" width="60" height="30" as="geometry" />
        </mxCell>
        <mxCell id="YykE-uixl1K2JJqu2O9A-121" value="En" style="text;html=1;strokeColor=none;fillColor=none;align=center;verticalAlign=middle;whiteSpace=wrap;rounded=0;" parent="1" vertex="1">
          <mxGeometry x="465" y="880" width="60" height="30" as="geometry" />
        </mxCell>
        <mxCell id="YykE-uixl1K2JJqu2O9A-122" value="EN5" style="text;html=1;strokeColor=none;fillColor=none;align=center;verticalAlign=middle;whiteSpace=wrap;rounded=0;fontStyle=1" parent="1" vertex="1">
          <mxGeometry x="485" y="1145.5" width="60" height="30" as="geometry" />
        </mxCell>
        <mxCell id="YykE-uixl1K2JJqu2O9A-128" style="edgeStyle=orthogonalEdgeStyle;rounded=0;orthogonalLoop=1;jettySize=auto;html=1;fontSize=14;" parent="1" source="YykE-uixl1K2JJqu2O9A-123" edge="1">
          <mxGeometry relative="1" as="geometry">
            <mxPoint x="680" y="1104.5" as="targetPoint" />
          </mxGeometry>
        </mxCell>
        <mxCell id="YykE-uixl1K2JJqu2O9A-123" value="&lt;div style=&quot;font-size: 13px;&quot;&gt;4-Bit Tristate&lt;/div&gt;&lt;div style=&quot;font-size: 13px;&quot;&gt;Buffer&lt;br style=&quot;font-size: 13px;&quot;&gt;&lt;/div&gt;" style="whiteSpace=wrap;html=1;aspect=fixed;fontStyle=1;fontSize=13;" parent="1" vertex="1">
          <mxGeometry x="455" y="1064.5" width="80" height="80" as="geometry" />
        </mxCell>
        <mxCell id="YykE-uixl1K2JJqu2O9A-124" value="" style="endArrow=none;html=1;rounded=0;strokeWidth=1;exitX=0.5;exitY=0.867;exitDx=0;exitDy=0;exitPerimeter=0;" parent="1" edge="1">
          <mxGeometry width="50" height="50" relative="1" as="geometry">
            <mxPoint x="495" y="1144.5100000000002" as="sourcePoint" />
            <mxPoint x="495" y="1164.5" as="targetPoint" />
          </mxGeometry>
        </mxCell>
        <mxCell id="YykE-uixl1K2JJqu2O9A-125" value="En" style="text;html=1;strokeColor=none;fillColor=none;align=center;verticalAlign=middle;whiteSpace=wrap;rounded=0;" parent="1" vertex="1">
          <mxGeometry x="465" y="1120" width="60" height="30" as="geometry" />
        </mxCell>
        <mxCell id="YykE-uixl1K2JJqu2O9A-129" value="&lt;div style=&quot;font-size: 13px&quot;&gt;3to1 Mux&lt;/div&gt;&lt;div style=&quot;font-size: 13px&quot;&gt;4-Bits&lt;br style=&quot;font-size: 13px&quot;&gt;&lt;/div&gt;" style="whiteSpace=wrap;html=1;aspect=fixed;fontStyle=1;fontSize=13;" parent="1" vertex="1">
          <mxGeometry x="-275" y="217.5" width="240" height="240" as="geometry" />
        </mxCell>
        <mxCell id="YykE-uixl1K2JJqu2O9A-130" value="&lt;div&gt;A[0]&lt;/div&gt;&lt;div&gt;A[1]&lt;/div&gt;&lt;div&gt;A[2]&lt;/div&gt;&lt;div&gt;A[3]&lt;br&gt;&lt;/div&gt;" style="text;html=1;strokeColor=none;fillColor=none;align=center;verticalAlign=middle;whiteSpace=wrap;rounded=0;" parent="1" vertex="1">
          <mxGeometry x="-275" y="247.5" width="60" height="30" as="geometry" />
        </mxCell>
        <mxCell id="YykE-uixl1K2JJqu2O9A-131" value="&lt;div&gt;B[0]&lt;/div&gt;&lt;div&gt;B[1]&lt;/div&gt;&lt;div&gt;B[2]&lt;/div&gt;&lt;div&gt;B[3]&lt;br&gt;&lt;/div&gt;" style="text;html=1;strokeColor=none;fillColor=none;align=center;verticalAlign=middle;whiteSpace=wrap;rounded=0;" parent="1" vertex="1">
          <mxGeometry x="-276" y="317.5" width="60" height="30" as="geometry" />
        </mxCell>
        <mxCell id="YykE-uixl1K2JJqu2O9A-132" value="S(0)" style="text;html=1;strokeColor=none;fillColor=none;align=center;verticalAlign=middle;whiteSpace=wrap;rounded=0;" parent="1" vertex="1">
          <mxGeometry x="-199.25" y="217.5" width="60" height="30" as="geometry" />
        </mxCell>
        <mxCell id="YykE-uixl1K2JJqu2O9A-133" value="&lt;div&gt;C[0]&lt;/div&gt;&lt;div&gt;C[1]&lt;/div&gt;&lt;div&gt;C[2]&lt;/div&gt;&lt;div&gt;C[3]&lt;br&gt;&lt;/div&gt;" style="text;html=1;strokeColor=none;fillColor=none;align=center;verticalAlign=middle;whiteSpace=wrap;rounded=0;" parent="1" vertex="1">
          <mxGeometry x="-275" y="382.5" width="54" height="30" as="geometry" />
        </mxCell>
        <mxCell id="YykE-uixl1K2JJqu2O9A-140" style="edgeStyle=orthogonalEdgeStyle;rounded=0;orthogonalLoop=1;jettySize=auto;html=1;entryX=0;entryY=0.5;entryDx=0;entryDy=0;fontSize=14;exitX=1;exitY=0.5;exitDx=0;exitDy=0;" parent="1" source="YykE-uixl1K2JJqu2O9A-134" target="_qCFZrQWDJR1jyEBsIuS-10" edge="1">
          <mxGeometry relative="1" as="geometry">
            <Array as="points">
              <mxPoint x="10" y="338" />
              <mxPoint x="10" y="175" />
            </Array>
            <mxPoint x="-30" y="338" as="sourcePoint" />
          </mxGeometry>
        </mxCell>
        <mxCell id="YykE-uixl1K2JJqu2O9A-134" value="&lt;div&gt;O[0]&lt;/div&gt;&lt;div&gt;O[1]&lt;/div&gt;&lt;div&gt;O[2]&lt;/div&gt;&lt;div&gt;O[3]&lt;br&gt;&lt;/div&gt;" style="text;html=1;strokeColor=none;fillColor=none;align=center;verticalAlign=middle;whiteSpace=wrap;rounded=0;" parent="1" vertex="1">
          <mxGeometry x="-94" y="322.5" width="60" height="30" as="geometry" />
        </mxCell>
        <mxCell id="YykE-uixl1K2JJqu2O9A-135" value="S(1)" style="text;html=1;strokeColor=none;fillColor=none;align=center;verticalAlign=middle;whiteSpace=wrap;rounded=0;" parent="1" vertex="1">
          <mxGeometry x="-170.75" y="217.5" width="60" height="30" as="geometry" />
        </mxCell>
        <mxCell id="YykE-uixl1K2JJqu2O9A-136" value="" style="endArrow=classic;html=1;rounded=0;fontSize=12;entryX=0;entryY=0;entryDx=0;entryDy=0;" parent="1" target="YykE-uixl1K2JJqu2O9A-135" edge="1">
          <mxGeometry width="50" height="50" relative="1" as="geometry">
            <mxPoint x="-171" y="185" as="sourcePoint" />
            <mxPoint x="-49" y="305" as="targetPoint" />
          </mxGeometry>
        </mxCell>
        <mxCell id="YykE-uixl1K2JJqu2O9A-137" value="" style="endArrow=classic;html=1;rounded=0;fontSize=12;entryX=0;entryY=0;entryDx=0;entryDy=0;" parent="1" edge="1">
          <mxGeometry width="50" height="50" relative="1" as="geometry">
            <mxPoint x="-140.94999999999982" y="185" as="sourcePoint" />
            <mxPoint x="-140.69999999999982" y="217.5" as="targetPoint" />
          </mxGeometry>
        </mxCell>
        <mxCell id="YykE-uixl1K2JJqu2O9A-138" value="S2" style="text;html=1;strokeColor=none;fillColor=none;align=center;verticalAlign=middle;whiteSpace=wrap;rounded=0;fontSize=14;fontStyle=1" parent="1" vertex="1">
          <mxGeometry x="-201.25" y="160" width="60" height="30" as="geometry" />
        </mxCell>
        <mxCell id="YykE-uixl1K2JJqu2O9A-139" value="S3" style="text;html=1;strokeColor=none;fillColor=none;align=center;verticalAlign=middle;whiteSpace=wrap;rounded=0;fontSize=14;fontStyle=1" parent="1" vertex="1">
          <mxGeometry x="-172.75" y="160" width="60" height="30" as="geometry" />
        </mxCell>
        <mxCell id="YykE-uixl1K2JJqu2O9A-143" value="" style="endArrow=classic;html=1;rounded=0;fontSize=12;entryX=0;entryY=0.5;entryDx=0;entryDy=0;" parent="1" edge="1">
          <mxGeometry width="50" height="50" relative="1" as="geometry">
            <mxPoint x="-349" y="403" as="sourcePoint" />
            <mxPoint x="-275.0000000000002" y="402.5000000000001" as="targetPoint" />
          </mxGeometry>
        </mxCell>
        <mxCell id="YykE-uixl1K2JJqu2O9A-144" value="0001" style="text;html=1;strokeColor=none;fillColor=none;align=center;verticalAlign=middle;whiteSpace=wrap;rounded=0;fontSize=12;" parent="1" vertex="1">
          <mxGeometry x="-349" y="380" width="60" height="30" as="geometry" />
        </mxCell>
        <mxCell id="YykE-uixl1K2JJqu2O9A-145" value="" style="endArrow=classic;html=1;rounded=0;fontSize=14;entryX=-0.006;entryY=0.474;entryDx=0;entryDy=0;entryPerimeter=0;" parent="1" edge="1">
          <mxGeometry width="50" height="50" relative="1" as="geometry">
            <mxPoint x="-701.9300000000001" y="188.67000000000007" as="sourcePoint" />
            <mxPoint x="-603" y="188.69999999999982" as="targetPoint" />
          </mxGeometry>
        </mxCell>
        <mxCell id="YykE-uixl1K2JJqu2O9A-147" value="" style="endArrow=classic;html=1;rounded=0;fontSize=14;entryX=-0.006;entryY=0.474;entryDx=0;entryDy=0;entryPerimeter=0;" parent="1" edge="1">
          <mxGeometry width="50" height="50" relative="1" as="geometry">
            <mxPoint x="-701" y="16.5" as="sourcePoint" />
            <mxPoint x="-602.0699999999999" y="16.529999999999973" as="targetPoint" />
          </mxGeometry>
        </mxCell>
        <mxCell id="L1e6-VTVeGRa-wtTE8pA-1" value="" style="ellipse;whiteSpace=wrap;html=1;aspect=fixed;fontSize=12;fillColor=#000000;" vertex="1" parent="1">
          <mxGeometry x="-385" y="897.5" width="10" height="10" as="geometry" />
        </mxCell>
        <mxCell id="L1e6-VTVeGRa-wtTE8pA-2" value="REG R" style="rounded=0;whiteSpace=wrap;html=1;rotation=-90;fontSize=13;fontStyle=1" vertex="1" parent="1">
          <mxGeometry x="777" y="515" width="260" height="130" as="geometry" />
        </mxCell>
        <mxCell id="L1e6-VTVeGRa-wtTE8pA-3" style="edgeStyle=orthogonalEdgeStyle;rounded=0;orthogonalLoop=1;jettySize=auto;html=1;fontSize=20;" edge="1" parent="1">
          <mxGeometry relative="1" as="geometry">
            <mxPoint x="841.5" y="580" as="targetPoint" />
            <mxPoint x="680" y="580" as="sourcePoint" />
          </mxGeometry>
        </mxCell>
      </root>
    </mxGraphModel>
  </diagram>
</mxfile>
